<svg width="51" height="50" viewBox="0 0 51 50" fill="none" xmlns="http://www.w3.org/2000/svg">
<path d="M3.6178 40.7277C3.6178 30.2426 3.6178 19.7573 3.6178 9.27227C3.64598 9.17813 3.686 9.08549 3.70024 8.98926C4.10393 6.23827 6.08502 4.03142 8.7804 3.33917C9.10838 3.25493 9.44147 3.19122 9.77215 3.11792C20.2573 3.11792 30.7425 3.11792 41.2276 3.11792C41.3067 3.14475 41.3842 3.18418 41.4661 3.19617C44.2701 3.61125 46.4563 5.56071 47.1587 8.28037C47.2433 8.60836 47.308 8.94144 47.382 9.27212C47.382 16.794 47.382 24.3159 47.382 31.838C47.3622 31.8573 47.3334 31.8733 47.3238 31.8972C46.9397 32.8486 46.233 33.3166 45.4071 33.1643C44.4841 32.994 43.9717 32.3082 43.9711 31.2384C43.97 29.8852 43.9708 28.5317 43.9708 27.1783C43.9708 27.029 43.9708 26.8798 43.9708 26.7296C38.3505 26.7296 32.8 26.7296 27.2274 26.7296C27.2274 32.3126 27.2274 37.873 27.2274 43.4556C27.3484 43.4613 27.4449 43.47 27.5419 43.47C31.8729 43.4706 36.2032 43.4733 40.5342 43.4645C40.857 43.4639 41.1897 43.4132 41.5009 43.3254C42.9603 42.9134 43.9072 41.646 43.9708 40.0545C44.02 38.825 45.1477 38.0323 46.2629 38.4407C46.8636 38.6609 47.165 39.1433 47.3822 39.7019C47.3822 40.0439 47.3822 40.3858 47.3822 40.7279C47.3539 40.8216 47.3158 40.9133 47.2985 41.0089C46.7831 43.8852 45.127 45.756 42.3408 46.6229C41.9779 46.7356 41.5994 46.7969 41.2278 46.8821C30.7428 46.8821 20.2574 46.8821 9.77245 46.8821C9.6933 46.8551 9.6158 46.8154 9.53426 46.8034C6.73934 46.3926 4.53759 44.4307 3.8401 41.7208C3.75526 41.3925 3.69125 41.0589 3.6178 40.7277ZM43.9706 23.275C43.9706 23.0866 43.9706 22.9457 43.9706 22.8048C43.9706 18.5756 43.9727 14.3466 43.9697 10.1173C43.9679 7.98552 42.5055 6.53072 40.3675 6.52967C36.1383 6.52773 31.9091 6.52937 27.68 6.52937C27.5295 6.52937 27.379 6.52937 27.2343 6.52937C27.2343 12.148 27.2343 17.7065 27.2343 23.275C32.816 23.275 38.3646 23.275 43.9706 23.275ZM7.0291 23.2617C12.6506 23.2617 18.2092 23.2617 23.7665 23.2617C23.7665 17.6717 23.7665 12.1129 23.7665 6.52937C23.5943 6.52937 23.4535 6.52937 23.3127 6.52937C19.098 6.52937 14.8832 6.52848 10.6683 6.52967C8.4755 6.53027 7.03 7.97502 7.02955 10.1667C7.02805 14.3673 7.0291 18.568 7.0291 22.7685C7.0291 22.9232 7.0291 23.0776 7.0291 23.2617ZM23.7642 43.4708C23.7642 37.8502 23.7642 32.2919 23.7642 26.741C18.1716 26.741 12.6128 26.741 7.02895 26.741C7.02895 26.9154 7.02895 27.0564 7.02895 27.1978C7.02895 31.4127 7.0279 35.6273 7.02955 39.8423C7.0303 42.0281 8.48045 43.4697 10.6776 43.4706C14.8781 43.4718 19.0788 43.4709 23.2793 43.4709C23.4334 43.4708 23.5878 43.4708 23.7642 43.4708Z" fill="#100644"/>
<path d="M35.573 30.3845C36.469 30.3848 37.3645 30.3784 38.2602 30.3866C39.2852 30.3959 40.023 31.1033 40.0282 32.0671C40.0338 33.0488 39.2865 33.7769 38.2432 33.7814C36.466 33.7891 34.6883 33.7901 32.9112 33.7808C31.8908 33.7759 31.1487 33.0544 31.1442 32.0925C31.1394 31.1076 31.8792 30.3977 32.9283 30.3854C33.369 30.3803 33.81 30.3845 34.2506 30.3842C34.6913 30.3843 35.132 30.3843 35.573 30.3845Z" fill="#100644"/>
<path d="M35.5657 39.7965C34.6823 39.7965 33.7994 39.8049 32.9162 39.7942C31.8805 39.7819 31.1487 39.0812 31.1436 38.1156C31.1383 37.1308 31.88 36.4099 32.9344 36.4047C34.7004 36.3954 36.467 36.3955 38.2336 36.4047C39.2865 36.4098 40.0321 37.1311 40.0285 38.1126C40.0251 39.0773 39.2916 39.7819 38.2582 39.7941C37.3607 39.8046 36.4631 39.7965 35.5657 39.7965Z" fill="#100644"/>
<path d="M35.5951 13.2099C36.4766 13.2099 37.3585 13.2063 38.2401 13.2108C39.2849 13.2162 40.0309 13.9321 40.0283 14.9173C40.0253 15.8786 39.2825 16.6037 38.2638 16.6089C36.472 16.6181 34.6804 16.6191 32.8889 16.6082C31.8768 16.602 31.1399 15.8647 31.1436 14.8981C31.1478 13.9324 31.89 13.218 32.9076 13.2111C33.8033 13.2051 34.6994 13.2099 35.5951 13.2099Z" fill="#100644"/>
<path d="M13.7122 13.2097C13.7122 12.8318 13.7062 12.507 13.7134 12.1825C13.7351 11.1961 14.4584 10.4685 15.4117 10.468C16.3662 10.4677 17.0903 11.1931 17.1139 12.1795C17.1215 12.5043 17.1149 12.8294 17.1149 13.2096C17.47 13.2096 17.7926 13.206 18.1151 13.2103C19.1067 13.224 19.8452 13.935 19.8559 14.8828C19.8667 15.8517 19.1311 16.587 18.1221 16.6103C17.8096 16.6173 17.4969 16.6113 17.1152 16.6113C17.1152 16.9357 17.1178 17.2419 17.1148 17.548C17.105 18.5991 16.3941 19.3521 15.4137 19.3527C14.4354 19.3531 13.7215 18.5973 13.712 17.5494C13.7095 17.2533 13.7117 16.9574 13.7117 16.6114C13.3523 16.6114 13.0289 16.6176 12.7063 16.6104C11.6958 16.5875 10.9616 15.8549 10.9709 14.8847C10.9802 13.9365 11.7173 13.2246 12.709 13.2105C13.0211 13.2061 13.3332 13.2097 13.7122 13.2097Z" fill="#100644"/>
<path d="M13.0736 35.067C12.7473 34.7743 12.474 34.5643 12.2434 34.3147C11.6014 33.6197 11.6152 32.6175 12.2554 31.9635C12.9086 31.2963 13.9321 31.2702 14.6377 31.9233C14.887 32.154 15.0949 32.4294 15.3555 32.7226C15.6393 32.4478 15.8597 32.2342 16.0802 32.0207C16.8399 31.2862 17.8667 31.2568 18.5588 31.9501C19.2513 32.6443 19.222 33.668 18.4808 34.4281C18.2741 34.6403 18.0514 34.8366 17.7727 35.0997C18.0577 35.3647 18.3068 35.5731 18.5293 35.8074C19.232 36.5472 19.2309 37.5795 18.538 38.2529C17.8569 38.9148 16.8466 38.8987 16.1233 38.2009C15.8988 37.9844 15.7033 37.738 15.3636 37.3592C15.1235 37.6723 14.9597 37.943 14.7421 38.1595C13.9898 38.9084 12.9633 38.9295 12.2685 38.2322C11.574 37.5356 11.6037 36.5173 12.3472 35.7563C12.5542 35.5451 12.7765 35.3482 13.0736 35.067Z" fill="#100644"/>
</svg>
