<svg width="51" height="52" viewBox="0 0 51 52" fill="none" xmlns="http://www.w3.org/2000/svg">
<path d="M3.11943 16.0268C1.91225 18.7671 1.40272 21.8826 1.32384 24.8548C1.15307 31.295 3.75205 37.3508 8.33405 41.8463C10.0896 43.5687 12.109 45.0281 14.2151 46.2892C15.485 47.0498 16.6357 45.0698 15.3708 44.3123C9.32763 40.6932 4.57452 35.1266 3.74616 27.9445C3.32348 24.2789 3.75691 20.6489 5.08943 17.2096C5.2127 16.8916 5.14664 17.0686 5.09654 17.1825C5.686 15.8446 3.71374 14.6782 3.11943 16.0268Z" fill="#100644"/>
<path d="M7.72084 13.2975C7.60971 16.1849 3.35452 16.1851 3.24356 13.2975C3.19519 12.0409 4.2973 11.1043 5.48194 11.0587C6.73852 11.0102 7.67524 12.1128 7.72084 13.2975C7.75863 14.2786 9.28515 14.2822 9.24736 13.2975C9.16622 11.1912 7.58821 9.61334 5.48194 9.53221C3.3774 9.45124 1.79332 11.3131 1.71704 13.2975C1.63608 15.4018 3.49772 16.9861 5.48194 17.0625C7.5863 17.1435 9.17073 15.2818 9.24736 13.2975C9.28515 12.3127 7.75863 12.3164 7.72084 13.2975Z" fill="#100644"/>
<path d="M44.1418 14.8498C41.6406 13.4313 43.5026 9.6016 46.1302 10.8353C48.749 12.0648 46.7505 16.0752 44.1418 14.8498C43.2566 14.4341 42.4811 15.7496 43.3716 16.168C45.2655 17.0575 47.4133 16.4539 48.461 14.6071C49.4929 12.7883 48.6427 10.5055 46.9005 9.51734C45.0815 8.48561 42.7989 9.33547 41.8109 11.0778C40.779 12.8972 41.6288 15.1796 43.3716 16.168C44.2289 16.6543 44.9979 15.3355 44.1418 14.8498Z" fill="#100644"/>
<path d="M29.1058 47.941C31.5798 47.6636 34.0058 46.8095 36.2481 45.7626C40.9591 43.5632 44.8674 39.8191 47.124 35.1228C48.918 31.3892 49.633 27.2515 49.6838 23.1326C49.7018 21.6555 47.4123 21.6572 47.3941 23.1326C47.3147 29.5774 45.3303 35.8474 40.4709 40.2662C37.5867 42.889 34.1511 44.515 30.4486 45.3846C30.055 45.477 29.6585 45.5576 29.2601 45.6247C29.1504 45.6433 29.0403 45.6603 28.9302 45.6755C28.8231 45.6906 29.3265 45.6265 29.1058 45.6513C27.6556 45.8139 27.6396 48.1053 29.1058 47.941Z" fill="#100644"/>
<path d="M43.6392 9.2928C41.5741 6.73092 38.6032 4.68377 35.67 3.27063C32.7924 1.88436 29.6734 1.10732 26.4793 1.00937C22.3884 0.883847 18.3786 2.03051 14.7288 3.8112C13.7421 4.29264 12.7888 4.84015 11.8552 5.41695C10.6021 6.19122 11.751 8.17231 13.0109 7.39388C16.6518 5.14441 20.6889 3.53207 24.9987 3.3138C28.1008 3.15673 31.226 3.77167 34.0599 5.03657C37.0791 6.38435 39.9305 8.33216 42.0196 10.9107L42.0205 10.9117C42.947 12.0615 44.5565 10.4308 43.6392 9.2928Z" fill="#100644"/>
<path d="M24.432 45.3353C26.9833 43.9801 29.1211 47.6592 26.68 49.2072C25.6173 49.8811 24.2553 49.3965 23.6204 48.3957C22.9462 47.3329 23.4309 45.9702 24.432 45.3353C25.2605 44.8099 24.4954 43.4884 23.6617 44.0172C21.8815 45.1462 21.3142 47.3053 22.3025 49.1659C23.2901 51.0255 25.6979 51.4563 27.4503 50.5252C29.3099 49.537 29.7419 47.1301 28.8102 45.377C27.822 43.5172 25.415 43.0859 23.6617 44.0172C22.792 44.4792 23.5632 45.7969 24.432 45.3353Z" fill="#100644"/>
<path d="M21.4297 20.9681C21.2772 22.2726 20.7944 23.2806 19.9812 23.9921C19.1737 24.698 18.0979 25.051 16.7538 25.051C15.2969 25.051 14.1279 24.5286 13.2469 23.4839C12.3716 22.4392 11.934 21.0415 11.934 19.2909V18.105C11.934 16.9586 12.1373 15.9506 12.5439 15.0809C12.9561 14.2112 13.5378 13.5449 14.2889 13.0818C15.0399 12.6131 15.9096 12.3787 16.8978 12.3787C18.208 12.3787 19.2584 12.7458 20.049 13.4799C20.8396 14.2084 21.2998 15.2192 21.4297 16.5124H19.7948C19.6537 15.5298 19.3459 14.8183 18.8715 14.3778C18.4028 13.9373 17.7449 13.7171 16.8978 13.7171C15.8588 13.7171 15.0427 14.1011 14.4498 14.8691C13.8625 15.6371 13.5688 16.7299 13.5688 18.1473V19.3417C13.5688 20.6801 13.8484 21.7446 14.4074 22.5352C14.9665 23.3258 15.7486 23.7211 16.7538 23.7211C17.6574 23.7211 18.3492 23.5178 18.8292 23.1112C19.3148 22.6989 19.6367 21.9846 19.7948 20.9681H21.4297Z" fill="#100644"/>
<path d="M33.1448 19.113C33.1448 20.3215 32.9415 21.3775 32.5349 22.281C32.1283 23.1789 31.5523 23.8651 30.8068 24.3394C30.0614 24.8138 29.1918 25.051 28.1979 25.051C27.2265 25.051 26.3653 24.8138 25.6143 24.3394C24.8632 23.8594 24.2787 23.1789 23.8608 22.298C23.4486 21.4114 23.2368 20.3864 23.2255 19.2231V18.3337C23.2255 17.1478 23.4316 16.1002 23.8439 15.191C24.2561 14.2818 24.8378 13.5872 25.5889 13.1072C26.3456 12.6215 27.2096 12.3787 28.1809 12.3787C29.1692 12.3787 30.0388 12.6187 30.7899 13.0987C31.5466 13.5731 32.1283 14.2649 32.5349 15.1741C32.9415 16.0776 33.1448 17.1308 33.1448 18.3337V19.113ZM31.5269 18.3167C31.5269 16.8541 31.2332 15.7331 30.6459 14.9538C30.0586 14.1689 29.2369 13.7764 28.1809 13.7764C27.1531 13.7764 26.3428 14.1689 25.7498 14.9538C25.1625 15.7331 24.8604 16.8174 24.8434 18.2066V19.113C24.8434 20.5304 25.1399 21.6457 25.7329 22.4589C26.3315 23.2665 27.1531 23.6702 28.1979 23.6702C29.2482 23.6702 30.0614 23.2891 30.6374 22.5267C31.2134 21.7587 31.5099 20.6603 31.5269 19.2316V18.3167Z" fill="#100644"/>
<path d="M40.7009 26.8194H37.3048V26.3459L39.0989 24.3524C39.3647 24.051 39.5475 23.8065 39.6472 23.619C39.7492 23.4292 39.8002 23.2334 39.8002 23.0317C39.8002 22.7611 39.7184 22.5392 39.5546 22.366C39.3908 22.1927 39.1725 22.1061 38.8996 22.1061C38.5721 22.1061 38.317 22.1998 38.1342 22.3873C37.9539 22.5724 37.8637 22.8311 37.8637 23.1634H37.2051C37.2051 22.6864 37.3582 22.3007 37.6643 22.0064C37.9728 21.7121 38.3846 21.565 38.8996 21.565C39.3814 21.565 39.7623 21.692 40.0423 21.9459C40.3223 22.1975 40.4624 22.5333 40.4624 22.9534C40.4624 23.4636 40.1372 24.0711 39.487 24.776L38.0986 26.2818H40.7009V26.8194Z" fill="#100644"/>
<path d="M15.4035 28.4089H19.4737V35.1249H20.8985L17.5405 38.4829L13.9788 35.3284H15.4035V28.4089Z" fill="#100644"/>
<path d="M23.4172 30.4696H27.4874V37.1856H28.912L25.5542 40.5437L21.9923 37.3891H23.4172V30.4696Z" fill="#100644"/>
<path d="M31.2782 28.4089H35.3484V35.1249H36.7729L33.4148 38.4829L29.8532 35.3284H31.2782V28.4089Z" fill="#100644"/>
<path d="M7.72084 13.2975C7.60971 16.1849 3.35452 16.1851 3.24356 13.2975C3.19519 12.0409 4.2973 11.1043 5.48194 11.0587C6.73852 11.0102 7.67524 12.1128 7.72084 13.2975ZM7.72084 13.2975C7.75863 14.2786 9.28515 14.2822 9.24736 13.2975M7.72084 13.2975C7.75863 12.3164 9.28515 12.3127 9.24736 13.2975M9.24736 13.2975C9.16622 11.1912 7.58821 9.61334 5.48194 9.53221C3.3774 9.45124 1.79332 11.3131 1.71704 13.2975C1.63608 15.4018 3.49772 16.9861 5.48194 17.0625C7.5863 17.1435 9.17073 15.2818 9.24736 13.2975ZM44.1418 14.8498C41.6406 13.4313 43.5026 9.6016 46.1302 10.8353C48.749 12.0648 46.7505 16.0752 44.1418 14.8498ZM44.1418 14.8498C43.2566 14.4341 42.4811 15.7496 43.3716 16.168M44.1418 14.8498C44.9979 15.3355 44.2289 16.6543 43.3716 16.168M43.3716 16.168C45.2655 17.0575 47.4133 16.4539 48.461 14.6071C49.4929 12.7883 48.6427 10.5055 46.9005 9.51734C45.0815 8.48561 42.7989 9.33547 41.8109 11.0778C40.779 12.8972 41.6288 15.1796 43.3716 16.168ZM24.432 45.3353C26.9833 43.9801 29.1211 47.6592 26.68 49.2072C25.6173 49.8811 24.2553 49.3965 23.6204 48.3957C22.9462 47.3329 23.4309 45.9702 24.432 45.3353ZM24.432 45.3353C25.2605 44.8099 24.4954 43.4884 23.6617 44.0172M24.432 45.3353C23.5632 45.7969 22.792 44.4792 23.6617 44.0172M23.6617 44.0172C21.8815 45.1462 21.3142 47.3053 22.3025 49.1659C23.2901 51.0255 25.6979 51.4563 27.4503 50.5252C29.3099 49.537 29.7419 47.1301 28.8102 45.377C27.822 43.5172 25.415 43.0859 23.6617 44.0172ZM3.11943 16.0268C1.91225 18.7671 1.40272 21.8826 1.32384 24.8548C1.15307 31.295 3.75205 37.3508 8.33405 41.8463C10.0896 43.5687 12.109 45.0281 14.2151 46.2892C15.485 47.0498 16.6357 45.0698 15.3708 44.3123C9.32763 40.6932 4.57452 35.1266 3.74616 27.9445C3.32348 24.2789 3.75691 20.6489 5.08943 17.2096C5.2127 16.8916 5.14664 17.0686 5.09654 17.1825C5.686 15.8446 3.71374 14.6782 3.11943 16.0268ZM29.1058 47.941C31.5798 47.6636 34.0058 46.8095 36.2481 45.7626C40.9591 43.5632 44.8674 39.8191 47.124 35.1228C48.918 31.3892 49.633 27.2515 49.6838 23.1326C49.7018 21.6555 47.4123 21.6572 47.3941 23.1326C47.3147 29.5774 45.3303 35.8474 40.4709 40.2662C37.5867 42.889 34.1511 44.515 30.4486 45.3846C30.055 45.477 29.6585 45.5576 29.2601 45.6247C29.1504 45.6433 29.0403 45.6603 28.9302 45.6755C28.8231 45.6906 29.3265 45.6265 29.1058 45.6513C27.6556 45.8139 27.6396 48.1053 29.1058 47.941ZM43.6392 9.2928C41.5741 6.73092 38.6032 4.68377 35.67 3.27063C32.7924 1.88436 29.6734 1.10732 26.4793 1.00937C22.3884 0.883847 18.3786 2.03051 14.7288 3.8112C13.7421 4.29264 12.7888 4.84015 11.8552 5.41695C10.6021 6.19122 11.751 8.17231 13.0109 7.39388C16.6518 5.14441 20.6889 3.53207 24.9987 3.3138C28.1008 3.15673 31.226 3.77167 34.0599 5.03657C37.0791 6.38435 39.9305 8.33216 42.0196 10.9107L42.0205 10.9117C42.947 12.0615 44.5565 10.4308 43.6392 9.2928ZM21.4297 20.9681C21.2772 22.2726 20.7944 23.2806 19.9812 23.9921C19.1737 24.698 18.0979 25.051 16.7538 25.051C15.2969 25.051 14.1279 24.5286 13.2469 23.4839C12.3716 22.4392 11.934 21.0415 11.934 19.2909V18.105C11.934 16.9586 12.1373 15.9506 12.5439 15.0809C12.9561 14.2112 13.5378 13.5449 14.2889 13.0818C15.0399 12.6131 15.9096 12.3787 16.8978 12.3787C18.208 12.3787 19.2584 12.7458 20.049 13.4799C20.8396 14.2084 21.2998 15.2192 21.4297 16.5124H19.7948C19.6537 15.5298 19.3459 14.8183 18.8715 14.3778C18.4028 13.9373 17.7449 13.7171 16.8978 13.7171C15.8588 13.7171 15.0427 14.1011 14.4498 14.8691C13.8625 15.6371 13.5688 16.7299 13.5688 18.1473V19.3417C13.5688 20.6801 13.8484 21.7446 14.4074 22.5352C14.9665 23.3258 15.7486 23.7211 16.7538 23.7211C17.6574 23.7211 18.3492 23.5178 18.8292 23.1112C19.3148 22.6989 19.6367 21.9846 19.7948 20.9681H21.4297ZM33.1448 19.113C33.1448 20.3215 32.9415 21.3775 32.5349 22.281C32.1283 23.1789 31.5523 23.8651 30.8068 24.3394C30.0614 24.8138 29.1918 25.051 28.1979 25.051C27.2265 25.051 26.3653 24.8138 25.6143 24.3394C24.8632 23.8594 24.2787 23.1789 23.8608 22.298C23.4486 21.4114 23.2368 20.3864 23.2255 19.2231V18.3337C23.2255 17.1478 23.4316 16.1002 23.8439 15.191C24.2561 14.2818 24.8378 13.5872 25.5889 13.1072C26.3456 12.6215 27.2096 12.3787 28.1809 12.3787C29.1692 12.3787 30.0388 12.6187 30.7899 13.0987C31.5466 13.5731 32.1283 14.2649 32.5349 15.1741C32.9415 16.0776 33.1448 17.1308 33.1448 18.3337V19.113ZM31.5269 18.3167C31.5269 16.8541 31.2332 15.7331 30.6459 14.9538C30.0586 14.1689 29.2369 13.7764 28.1809 13.7764C27.1531 13.7764 26.3428 14.1689 25.7498 14.9538C25.1625 15.7331 24.8604 16.8174 24.8434 18.2066V19.113C24.8434 20.5304 25.1399 21.6457 25.7329 22.4589C26.3315 23.2665 27.1531 23.6702 28.1979 23.6702C29.2482 23.6702 30.0614 23.2891 30.6374 22.5267C31.2134 21.7587 31.5099 20.6603 31.5269 19.2316V18.3167ZM40.7009 26.8194H37.3048V26.3459L39.0989 24.3524C39.3647 24.051 39.5475 23.8065 39.6472 23.619C39.7492 23.4292 39.8002 23.2334 39.8002 23.0317C39.8002 22.7611 39.7184 22.5392 39.5546 22.366C39.3908 22.1927 39.1725 22.1061 38.8996 22.1061C38.5721 22.1061 38.317 22.1998 38.1342 22.3873C37.9539 22.5724 37.8637 22.8311 37.8637 23.1634H37.2051C37.2051 22.6864 37.3582 22.3007 37.6643 22.0064C37.9728 21.7121 38.3846 21.565 38.8996 21.565C39.3814 21.565 39.7623 21.692 40.0423 21.9459C40.3223 22.1975 40.4624 22.5333 40.4624 22.9534C40.4624 23.4636 40.1372 24.0711 39.487 24.776L38.0986 26.2818H40.7009V26.8194ZM15.4035 28.4089H19.4737V35.1249H20.8985L17.5405 38.4829L13.9788 35.3284H15.4035V28.4089ZM23.4172 30.4696H27.4874V37.1856H28.912L25.5542 40.5437L21.9923 37.3891H23.4172V30.4696ZM31.2782 28.4089H35.3484V35.1249H36.7729L33.4148 38.4829L29.8532 35.3284H31.2782V28.4089Z" stroke="#100644"/>
</svg>
