<svg width="51" height="50" viewBox="0 0 51 50" fill="none" xmlns="http://www.w3.org/2000/svg">
<path d="M36.9773 19.8106C37.5631 19.2249 37.5631 18.2751 36.9773 17.6893C36.3915 17.1035 35.4418 17.1035 34.856 17.6893L36.9773 19.8106ZM21.3333 33.3334L20.2726 34.394C20.8584 34.9798 21.8081 34.9798 22.3939 34.394L21.3333 33.3334ZM16.1438 26.0226C15.5581 25.4369 14.6083 25.4369 14.0225 26.0227C13.4367 26.6084 13.4367 27.5582 14.0225 28.144L16.1438 26.0226ZM8.83331 8.33331V6.83331C8.00489 6.83331 7.33331 7.50489 7.33331 8.33331H8.83331ZM42.1666 8.33331H43.6666C43.6666 7.50489 42.9951 6.83331 42.1666 6.83331V8.33331ZM42.1666 41.6666V43.1666C42.9951 43.1666 43.6666 42.4951 43.6666 41.6666H42.1666ZM8.83331 41.6666H7.33331C7.33331 42.4951 8.00489 43.1666 8.83331 43.1666V41.6666ZM34.856 17.6893L20.2726 32.2727L22.3939 34.394L36.9773 19.8106L34.856 17.6893ZM14.0225 28.144L20.2726 34.394L22.3939 32.2727L16.1438 26.0226L14.0225 28.144ZM8.83331 9.83331H42.1666V6.83331H8.83331V9.83331ZM40.6666 8.33331V41.6666H43.6666V8.33331H40.6666ZM42.1666 40.1666H8.83331V43.1666H42.1666V40.1666ZM10.3333 41.6666V8.33331H7.33331V41.6666H10.3333Z" fill="#100644"/>
</svg>
