<svg width="51" height="50" viewBox="0 0 51 50" fill="none" xmlns="http://www.w3.org/2000/svg">
<path fill-rule="evenodd" clip-rule="evenodd" d="M11.8503 9.55792C12.4549 9.09811 13.0384 8.60693 13.6674 8.18356C19.8238 4.03966 26.419 3.24622 33.2806 6.0112C43.8269 10.2609 48.8511 22.351 44.4481 32.8291C41.6606 39.4618 36.6068 43.5169 29.5826 45.0965C28.6229 45.3125 27.7881 44.7877 27.5921 43.8891C27.3977 42.9961 27.944 42.1708 28.905 41.9688C31.4265 41.4395 33.755 40.4609 35.8057 38.9016C39.9449 35.754 42.2864 31.5723 42.7265 26.3878C43.0925 22.0756 42.0065 18.1043 39.3747 14.6706C35.4177 9.50774 30.1107 7.19497 23.6314 7.78573C19.289 8.18171 15.5576 10.0342 12.6936 13.3125C7.9146 18.7827 6.81639 25.032 9.55915 31.759C11.7018 37.0138 15.7344 40.2926 21.2024 41.7934C21.8665 41.9758 22.3304 42.3401 22.4915 43.0201C22.6402 43.6474 22.4544 44.1889 21.9666 44.6069C21.5154 44.9938 20.9924 45.0588 20.4222 44.913C17.8824 44.2633 15.532 43.1943 13.4277 41.634C8.71934 38.1428 5.86969 33.5007 5.11542 27.6756C4.37675 21.9704 5.80587 16.8108 9.35248 12.258C9.58127 11.9643 9.80712 11.6685 10.0343 11.3738C10.6396 10.7686 11.2449 10.1633 11.8503 9.55792Z" fill="#100644"/>
<path fill-rule="evenodd" clip-rule="evenodd" d="M23.2 24.9935C23.072 24.8656 22.9707 24.7643 22.8695 24.663C21.6598 23.4528 20.4454 22.2472 19.2427 21.03C18.769 20.5509 18.6343 19.971 18.8654 19.3317C19.0855 18.7222 19.5414 18.3795 20.1755 18.2963C20.7138 18.2256 21.1681 18.4176 21.5511 18.8028C22.739 19.9969 23.9321 21.1859 25.1232 22.377C25.2259 22.4797 25.3287 22.5825 25.4699 22.7236C25.5859 22.6076 25.6859 22.5076 25.7857 22.4079C26.9673 21.2262 28.1481 20.0436 29.3308 18.8633C30.0704 18.1253 31.0474 18.0831 31.7162 18.756C32.3825 19.4267 32.3331 20.3978 31.5912 21.1418C30.4202 22.3151 29.2469 23.4864 28.0748 24.6585C27.9729 24.7604 27.8709 24.8624 27.7398 24.9935C27.8653 25.119 27.9663 25.2201 28.0672 25.321C29.2489 26.5027 30.4314 27.6834 31.6116 28.8664C32.3319 29.5882 32.3759 30.5585 31.7231 31.2228C31.06 31.8978 30.072 31.8619 29.3359 31.1285C28.0584 29.8555 26.7849 28.5788 25.4697 27.2636C25.3553 27.378 25.2557 27.4776 25.156 27.5773C23.9366 28.7967 22.7224 30.0212 21.4952 31.2328C20.8912 31.8289 19.9759 31.8612 19.341 31.3389C18.709 30.819 18.5728 29.898 19.0351 29.2032C19.1303 29.0603 19.2581 28.9373 19.3805 28.8147C20.5418 27.6506 21.705 26.4885 22.8678 25.3257C22.9692 25.2243 23.0708 25.1227 23.2 24.9935Z" fill="#100644"/>
</svg>
