<svg width="50" height="50" viewBox="0 0 50 50" fill="none" xmlns="http://www.w3.org/2000/svg">
<path d="M25 22.72L36.0802 11.6397C36.0804 11.6396 36.0805 11.6394 36.0807 11.6393C36.2302 11.4895 36.4079 11.3706 36.6034 11.2895C36.7991 11.2082 37.0089 11.1664 37.2208 11.1664C37.4327 11.1664 37.6425 11.2082 37.8383 11.2895C38.0339 11.3706 38.2116 11.4896 38.3612 11.6395C38.3612 11.6396 38.3613 11.6397 38.3614 11.6397L38.0074 11.9928C38.1109 12.096 38.1929 12.2186 38.249 12.3536C38.305 12.4886 38.3338 12.6333 38.3338 12.7794C38.3338 12.9255 38.305 13.0702 38.249 13.2052C38.1929 13.3402 38.1109 13.4628 38.0074 13.566L25 22.72ZM25 22.72L13.9198 11.6397C13.9197 11.6397 13.9197 11.6396 13.9196 11.6396C13.77 11.4896 13.5923 11.3706 13.3966 11.2895C13.2009 11.2082 12.9911 11.1664 12.7792 11.1664C12.5673 11.1664 12.3575 11.2082 12.1618 11.2895C11.9662 11.3706 11.7886 11.4895 11.6391 11.6393C11.4893 11.7888 11.3704 11.9665 11.2892 12.162C11.208 12.3577 11.1662 12.5675 11.1662 12.7794C11.1662 12.9913 11.208 13.2011 11.2892 13.3969C11.3704 13.5925 11.4893 13.7701 11.6392 13.9197C11.6393 13.9198 11.6394 13.9199 11.6395 13.92L22.7198 25.0002L11.639 36.0809C11.3367 36.3833 11.1668 36.7934 11.1668 37.2211C11.1668 37.6487 11.3367 38.0588 11.639 38.3612C11.9414 38.6636 12.3515 38.8335 12.7792 38.8335C13.2068 38.8335 13.6169 38.6636 13.9193 38.3612L25 27.2805L36.0807 38.3612C36.3831 38.6636 36.7932 38.8335 37.2209 38.8335C37.6485 38.8335 38.0586 38.6636 38.361 38.3612C38.6634 38.0588 38.8332 37.6487 38.8332 37.2211C38.8332 36.7934 38.6634 36.3833 38.361 36.0809L27.2803 25.0002L38.3605 13.92" fill="#100644" stroke="#100644"/>
</svg>
