<svg width="50" height="50" viewBox="0 0 50 50" fill="none" xmlns="http://www.w3.org/2000/svg">
<path d="M43.1928 36.8913C43.1864 37.0348 43.1771 37.1472 43.1771 37.2596C43.1756 38.2283 43.1787 39.1972 43.175 40.1659C43.1715 41.0434 42.7481 41.7307 42.0058 42.0178C41.1943 42.3314 40.4809 42.1499 39.8691 41.5369C38.3885 40.0543 36.9034 38.5761 35.4273 37.0891C35.2804 36.9408 35.1332 36.8879 34.9301 36.888C30.2969 36.8923 25.6628 36.8967 21.0298 36.8879C18.9878 36.8839 17.2216 35.539 16.7024 33.5645C16.5493 32.9828 16.5436 32.3625 16.4638 31.7045C15.9448 31.7045 15.3715 31.6967 14.7987 31.7134C14.7168 31.7159 14.6319 31.83 14.5591 31.903C13.0688 33.3911 11.5849 34.8854 10.0897 36.3685C9.03551 37.4145 7.33646 37.0126 6.91998 35.621C6.85198 35.3935 6.83167 35.1446 6.8297 34.9052C6.82036 33.8527 6.82577 32.8002 6.82577 31.697C6.67749 31.697 6.54527 31.7019 6.41354 31.6962C5.60563 31.6603 4.78117 31.7129 3.99342 31.5671C1.94702 31.1886 0.433274 29.3244 0.428523 27.2469C0.418365 22.266 0.417054 17.2852 0.429014 12.3044C0.434585 9.83546 2.47541 7.83657 4.9709 7.8351C11.6681 7.83051 18.3654 7.8333 25.0626 7.83313C28.0323 7.83313 31.0019 7.82724 33.9716 7.83592C35.9642 7.84165 37.7015 9.09964 38.2859 10.9778C38.4243 11.4231 38.4532 11.9045 38.5128 12.3717C38.5394 12.578 38.5172 12.7905 38.5172 13.0494C38.6599 13.0494 38.7817 13.0494 38.9032 13.0494C40.9251 13.0494 42.9471 13.0491 44.9689 13.0496C47.5981 13.0501 49.5776 15.0316 49.5783 17.6668C49.5799 22.5318 49.5801 27.3968 49.5783 32.2621C49.5776 34.915 47.6066 36.8839 44.9484 36.8915C44.3715 36.8928 43.7946 36.8913 43.1928 36.8913ZM9.02929 34.2236C9.06435 34.243 9.09925 34.2621 9.13398 34.2816C9.19559 34.1964 9.24687 34.1011 9.32044 34.0277C10.7477 32.5965 12.1806 31.1709 13.6028 29.7343C13.7806 29.5546 13.9565 29.4868 14.2075 29.4869C20.7663 29.4935 27.3253 29.4928 33.8844 29.4915C35.3039 29.4912 36.3119 28.4832 36.3126 27.0666C36.3135 22.2131 36.3135 17.3599 36.3129 12.5066C36.3126 11.0274 35.3197 10.037 33.8331 10.0368C24.2524 10.0358 14.672 10.0358 5.09149 10.0368C3.62166 10.037 2.63041 11.0253 2.63008 12.4892C2.62893 17.3534 2.62893 22.2172 2.63024 27.0812C2.63057 28.4796 3.6387 29.4889 5.03677 29.4919C6.24757 29.4943 7.45804 29.492 8.66884 29.4919C8.78041 29.4919 8.89199 29.4919 9.02913 29.4919C9.02929 31.0975 9.02929 32.6606 9.02929 34.2236ZM40.9746 34.6871C41.1299 34.6871 41.2439 34.6871 41.3576 34.6871C42.5476 34.6871 43.7369 34.6876 44.9269 34.687C46.3961 34.6862 47.3741 33.7054 47.3744 32.2282C47.3754 27.3848 47.3756 22.5418 47.3742 17.6983C47.3741 16.233 46.3877 15.2464 44.9155 15.2434C42.9148 15.2397 40.9144 15.2429 38.9137 15.2433C38.7902 15.2433 38.6663 15.2433 38.5172 15.2433C38.5172 15.4084 38.5172 15.5336 38.5172 15.6586C38.5172 19.4594 38.5199 23.2604 38.5131 27.0614C38.5126 27.396 38.4872 27.7373 38.4183 28.0635C37.9612 30.2288 36.1432 31.6939 33.9131 31.6959C28.996 31.6998 24.0791 31.697 19.1622 31.697C19.0291 31.697 18.8959 31.697 18.772 31.697C18.772 32.0935 18.7188 32.4582 18.7817 32.8015C18.9886 33.9294 19.933 34.6844 21.0963 34.685C26.0029 34.688 30.9095 34.688 35.8158 34.6821C36.0434 34.6819 36.2052 34.742 36.3681 34.9065C37.8053 36.3572 39.2522 37.799 40.6968 39.2426C40.7678 39.3136 40.845 39.3778 40.9746 39.4954C40.9746 38.6526 40.9746 37.8786 40.9746 37.1045C40.9746 36.3157 40.9746 35.5268 40.9746 34.6871Z" fill="#100644"/>
<path d="M31.132 23.1125C31.306 23.3268 31.4641 23.5217 31.6411 23.7396C31.153 24.1309 30.6711 24.5168 30.1893 24.9028C30.1473 24.8759 30.1111 24.8657 30.099 24.843C29.7967 24.2746 29.4007 24.2372 28.7761 24.3944C26.9136 24.8633 24.9804 24.1024 24.0173 22.6368C22.5321 20.3771 23.3739 16.5835 26.946 16.0359C28.6487 15.7751 30.1599 16.1886 31.2777 17.5742C32.4582 19.038 32.469 21.2953 31.354 22.8169C31.2862 22.9095 31.2157 23.0009 31.132 23.1125ZM29.7174 21.3931C30.2566 20.5196 30.0212 19.0904 29.2418 18.3864C28.4717 17.6909 27.1836 17.6537 26.3553 18.3032C25.4826 18.9877 25.2211 20.4094 25.7737 21.4675C26.238 22.3568 27.2947 22.8387 28.2045 22.5551C27.9402 22.2264 27.6818 21.9048 27.4166 21.575C27.9184 21.1704 28.3922 20.7885 28.8787 20.3966C29.1603 20.7312 29.4295 21.0513 29.7174 21.3931Z" fill="#100644"/>
<path d="M14.1186 24.3698C14.4091 23.5942 14.6835 22.8588 14.9599 22.1238C15.6769 20.2165 16.3991 18.3112 17.1064 16.4003C17.1944 16.1624 17.3079 16.0865 17.5593 16.0934C18.2535 16.1128 18.9488 16.1051 19.6437 16.0969C19.8216 16.0947 19.9255 16.1324 19.9953 16.319C20.9756 18.9356 21.9652 21.5487 22.9512 24.1633C22.9725 24.2202 22.9802 24.2825 23.0005 24.3696C22.277 24.3696 21.5741 24.3747 20.8714 24.3621C20.7986 24.3608 20.6929 24.2679 20.6621 24.1932C20.5589 23.941 20.4649 23.6818 20.401 23.4172C20.3446 23.1834 20.2363 23.1031 19.9899 23.1069C19.0322 23.1221 18.0741 23.1185 17.1161 23.1084C16.9137 23.1062 16.8158 23.1636 16.7633 23.3654C16.6894 23.6492 16.5859 23.9263 16.4778 24.1995C16.4501 24.2693 16.3583 24.3614 16.2947 24.3624C15.5828 24.374 14.8711 24.3698 14.1186 24.3698ZM19.7356 21.3176C19.3447 20.191 18.9713 19.1137 18.5976 18.0366C18.5759 18.0389 18.554 18.0412 18.5322 18.0435C18.1612 19.1271 17.7901 20.2108 17.4113 21.3176C18.1989 21.3176 18.9334 21.3176 19.7356 21.3176Z" fill="#100644"/>
<path d="M13.909 16.12C13.909 16.7101 13.909 17.2742 13.909 17.8692C13.785 17.8746 13.6734 17.8837 13.5618 17.8837C12.4675 17.8847 11.3734 17.8901 10.2791 17.88C10.0481 17.878 9.96008 17.9383 9.9745 18.1813C9.99531 18.5257 9.97991 18.8722 9.97991 19.2523C11.259 19.2523 12.5152 19.2523 13.7994 19.2523C13.7994 19.8685 13.7994 20.4508 13.7994 21.0762C12.5467 21.0762 11.2818 21.0762 9.98744 21.0762C9.98744 22.1876 9.98744 23.2571 9.98744 24.3482C9.27948 24.3482 8.60084 24.3482 7.89435 24.3482C7.89435 21.6151 7.89435 18.8773 7.89435 16.1198C9.88766 16.12 11.8824 16.12 13.909 16.12Z" fill="#100644"/>
</svg>
