<svg width="50" height="50" viewBox="0 0 50 50" fill="none" xmlns="http://www.w3.org/2000/svg">
<path fill-rule="evenodd" clip-rule="evenodd" d="M41.7788 25.1833C41.648 19.75 39.7629 15.4932 35.9602 12.1188C35.2924 11.5265 34.9632 10.8223 35.1475 9.94416C35.3101 9.16909 35.7936 8.63225 36.5622 8.39819C37.3681 8.15285 38.063 8.3777 38.6862 8.92709C41.4618 11.3733 43.496 14.3232 44.7316 17.814C49.0221 29.9337 41.5714 43.0198 28.9573 45.5247C20.4102 47.2219 11.2623 43.1339 7.04501 35.5053C2.62945 27.5183 3.11457 19.6838 8.36737 12.2097C9.18483 11.0466 10.2571 10.0519 11.2746 9.04293C12.2213 8.10461 13.5428 8.15856 14.3584 9.0729C15.1543 9.96479 15.0588 11.2658 14.0908 12.125C12.371 13.6506 10.98 15.4236 9.99099 17.4995C5.17855 27.6 11.1299 39.5094 22.1955 41.4419C31.3659 43.0432 39.9471 36.9069 41.5049 27.6863C41.6648 26.74 41.7159 25.7752 41.7788 25.1833Z" fill="#100644"/>
<path fill-rule="evenodd" clip-rule="evenodd" d="M22.9473 14.5511C22.9473 11.7921 22.9396 9.03318 22.9506 6.27413C22.9561 4.91357 23.9202 4.00829 25.2243 4.101C26.1902 4.16958 27.0042 4.95957 27.0978 5.92591C27.1153 6.1042 27.1164 6.28459 27.1164 6.46386C27.1173 11.8841 27.1183 17.3042 27.1136 22.7243C27.1134 23.0156 27.1061 23.3185 27.0297 23.5961C26.7513 24.6083 25.805 25.2116 24.7411 25.0884C23.7546 24.9739 22.9643 24.1218 22.9575 23.0732C22.9388 20.2326 22.951 17.3919 22.951 14.5511H22.9473Z" fill="#100644"/>
</svg>
