<svg width="51" height="50" viewBox="0 0 51 50" fill="none" xmlns="http://www.w3.org/2000/svg">
<path d="M16.9167 23.5C16.0882 23.5 15.4167 24.1716 15.4167 25C15.4167 25.8284 16.0882 26.5 16.9167 26.5V23.5ZM33.5833 26.5C34.4118 26.5 35.0833 25.8284 35.0833 25C35.0833 24.1716 34.4118 23.5 33.5833 23.5V26.5ZM16.9167 26.5H33.5833V23.5H16.9167V26.5ZM42.5 25C42.5 34.5269 34.7769 42.25 25.25 42.25V45.25C36.4338 45.25 45.5 36.1838 45.5 25H42.5ZM25.25 42.25C15.7231 42.25 8 34.5269 8 25H5C5 36.1838 14.0662 45.25 25.25 45.25V42.25ZM8 25C8 15.4731 15.7231 7.75 25.25 7.75V4.75C14.0662 4.75 5 13.8162 5 25H8ZM25.25 7.75C34.7769 7.75 42.5 15.4731 42.5 25H45.5C45.5 13.8162 36.4338 4.75 25.25 4.75V7.75Z" fill="#100644"/>
</svg>
