<svg width="50" height="50" viewBox="0 0 50 50" fill="none" xmlns="http://www.w3.org/2000/svg">
<path fill-rule="evenodd" clip-rule="evenodd" d="M4.42897 23.7326C4.53135 22.98 4.59667 22.22 4.74205 21.4759C6.16508 14.1925 10.2676 8.96796 17.0746 6.07119C27.537 1.61883 39.6386 6.61521 43.9343 17.1377C46.6533 23.7988 45.9471 30.2398 42.0972 36.3236C41.5713 37.1549 40.6099 37.3741 39.8359 36.8772C39.067 36.3834 38.8697 35.4134 39.4064 34.591C40.8151 32.4338 41.7696 30.0954 42.1172 27.5427C42.8183 22.3902 41.5171 17.7776 38.1622 13.8004C35.3719 10.4924 31.7959 8.45218 27.5069 7.88515C21.0582 7.03246 15.6702 9.14971 11.5064 14.149C8.71584 17.4995 7.3872 21.448 7.68015 25.7912C8.16892 33.0385 11.8113 38.234 18.5074 41.0512C23.7382 43.2519 28.9082 42.7189 33.8358 39.9136C34.4344 39.573 35.0201 39.5025 35.6148 39.8695C36.1635 40.2079 36.415 40.7222 36.3656 41.3627C36.3202 41.9553 35.9964 42.3711 35.4901 42.6712C33.2348 44.0077 30.8168 44.9138 28.2256 45.2984C22.4276 46.1591 17.1301 44.8917 12.4778 41.306C7.9213 37.7941 5.28345 33.1352 4.572 27.4081C4.52612 27.0387 4.47665 26.6698 4.42883 26.3008C4.42897 25.4448 4.42897 24.5888 4.42897 23.7326Z" fill="#100644"/>
<path fill-rule="evenodd" clip-rule="evenodd" d="M23.369 26.6218C23.1881 26.6218 23.0448 26.6218 22.9016 26.6218C21.1905 26.6214 19.4793 26.6276 17.7681 26.6174C17.0945 26.6136 16.5892 26.2988 16.3005 25.6833C16.0251 25.0967 16.1052 24.532 16.4948 24.0248C16.8253 23.5942 17.2824 23.4087 17.8256 23.4102C19.5099 23.4146 21.1943 23.4117 22.8788 23.4117C23.024 23.4117 23.1694 23.4117 23.369 23.4117C23.369 23.2476 23.369 23.1062 23.369 22.9651C23.369 21.294 23.3678 19.6228 23.3695 17.9519C23.3706 16.9071 24.0316 16.1865 24.9803 16.1894C25.9257 16.1924 26.5775 16.914 26.5789 17.9647C26.5805 19.6224 26.5792 21.2803 26.5792 22.9378C26.5792 23.082 26.5792 23.2262 26.5792 23.4117C26.7566 23.4117 26.8995 23.4117 27.0423 23.4117C28.7134 23.4117 30.3844 23.4105 32.0555 23.4124C33.0752 23.4135 33.7924 24.0685 33.8006 24.9998C33.809 25.9459 33.085 26.6192 32.0458 26.6211C30.2424 26.6243 28.4391 26.6221 26.5792 26.6221C26.5792 26.7839 26.5792 26.9247 26.5792 27.0657C26.5792 28.7902 26.5865 30.5146 26.5754 32.2391C26.5698 33.0877 25.9454 33.7578 25.1272 33.8374C24.3127 33.9167 23.5651 33.3618 23.4007 32.5435C23.367 32.3751 23.3704 32.1978 23.3703 32.0246C23.3682 30.3802 23.369 28.7361 23.369 27.0916C23.369 26.9481 23.369 26.8046 23.369 26.6218Z" fill="#100644"/>
</svg>
