<svg width="50" height="50" viewBox="0 0 50 50" fill="none" xmlns="http://www.w3.org/2000/svg">
<path d="M26.5 16.6667C26.5 15.8382 25.8284 15.1667 25 15.1667C24.1716 15.1667 23.5 15.8382 23.5 16.6667H26.5ZM23.5 33.3333C23.5 34.1618 24.1716 34.8333 25 34.8333C25.8284 34.8333 26.5 34.1618 26.5 33.3333H23.5ZM16.6667 23.5C15.8382 23.5 15.1667 24.1716 15.1667 25C15.1667 25.8284 15.8382 26.5 16.6667 26.5V23.5ZM33.3333 26.5C34.1618 26.5 34.8333 25.8284 34.8333 25C34.8333 24.1716 34.1618 23.5 33.3333 23.5V26.5ZM23.5 16.6667V33.3333H26.5V16.6667H23.5ZM16.6667 26.5H33.3333V23.5H16.6667V26.5ZM42.25 25C42.25 34.5269 34.5269 42.25 25 42.25V45.25C36.1838 45.25 45.25 36.1838 45.25 25H42.25ZM25 42.25C15.4731 42.25 7.75 34.5269 7.75 25H4.75C4.75 36.1838 13.8162 45.25 25 45.25V42.25ZM7.75 25C7.75 15.4731 15.4731 7.75 25 7.75V4.75C13.8162 4.75 4.75 13.8162 4.75 25H7.75ZM25 7.75C34.5269 7.75 42.25 15.4731 42.25 25H45.25C45.25 13.8162 36.1838 4.75 25 4.75V7.75Z" fill="#100644"/>
</svg>
