<svg width="51" height="50" viewBox="0 0 51 50" fill="none" xmlns="http://www.w3.org/2000/svg">
<path fill-rule="evenodd" clip-rule="evenodd" d="M4.92897 23.7326C5.03135 22.98 5.09667 22.22 5.24205 21.4759C6.66508 14.1925 10.7676 8.96796 17.5746 6.07119C28.037 1.61883 40.1386 6.61521 44.4343 17.1377C47.1533 23.7988 46.4471 30.2398 42.5972 36.3236C42.0713 37.1549 41.1099 37.3741 40.3359 36.8772C39.567 36.3834 39.3697 35.4134 39.9064 34.591C41.3151 32.4338 42.2696 30.0954 42.6172 27.5427C43.3183 22.3902 42.0171 17.7776 38.6622 13.8004C35.8719 10.4924 32.2959 8.45218 28.0069 7.88515C21.5582 7.03246 16.1702 9.14971 12.0064 14.149C9.21584 17.4995 7.8872 21.448 8.18015 25.7912C8.66892 33.0385 12.3113 38.234 19.0074 41.0512C24.2382 43.2519 29.4082 42.7189 34.3358 39.9136C34.9344 39.573 35.5201 39.5025 36.1148 39.8695C36.6635 40.2079 36.915 40.7222 36.8656 41.3627C36.8202 41.9553 36.4964 42.3711 35.9901 42.6712C33.7348 44.0077 31.3168 44.9138 28.7256 45.2984C22.9276 46.1591 17.6301 44.8917 12.9778 41.306C8.4213 37.7941 5.78345 33.1352 5.072 27.4081C5.02612 27.0387 4.97665 26.6698 4.92883 26.3008C4.92897 25.4448 4.92897 24.5888 4.92897 23.7326Z" fill="#100644"/>
<path fill-rule="evenodd" clip-rule="evenodd" d="M23.869 26.6218C23.6881 26.6218 23.5448 26.6218 23.4016 26.6218C21.6905 26.6214 19.9793 26.6276 18.2681 26.6174C17.5945 26.6136 17.0892 26.2988 16.8005 25.6833C16.5251 25.0967 16.6052 24.532 16.9948 24.0248C17.3253 23.5942 17.7824 23.4087 18.3256 23.4102C20.0099 23.4146 21.6943 23.4117 23.3788 23.4117C23.524 23.4117 23.6694 23.4117 23.869 23.4117C23.869 23.2476 23.869 23.1062 23.869 22.9651C23.869 21.294 23.8678 19.6228 23.8695 17.9519C23.8706 16.9071 24.5316 16.1865 25.4803 16.1894C26.4257 16.1924 27.0775 16.914 27.0789 17.9647C27.0805 19.6224 27.0792 21.2803 27.0792 22.9378C27.0792 23.082 27.0792 23.2262 27.0792 23.4117C27.2566 23.4117 27.3995 23.4117 27.5423 23.4117C29.2134 23.4117 30.8844 23.4105 32.5555 23.4124C33.5752 23.4135 34.2924 24.0685 34.3006 24.9998C34.309 25.9459 33.585 26.6192 32.5458 26.6211C30.7424 26.6243 28.9391 26.6221 27.0792 26.6221C27.0792 26.7839 27.0792 26.9247 27.0792 27.0657C27.0792 28.7902 27.0865 30.5146 27.0754 32.2391C27.0698 33.0877 26.4454 33.7578 25.6272 33.8374C24.8127 33.9167 24.0651 33.3618 23.9007 32.5435C23.867 32.3751 23.8704 32.1978 23.8703 32.0246C23.8682 30.3802 23.869 28.7361 23.869 27.0916C23.869 26.9481 23.869 26.8046 23.869 26.6218Z" fill="#100644"/>
</svg>
