<svg width="51" height="50" viewBox="0 0 51 50" fill="none" xmlns="http://www.w3.org/2000/svg">
<g clip-path="url(#clip0_369_533)">
<path d="M13.3034 49.9524C12.953 49.6996 12.5614 49.4874 12.2578 49.1868C9.83388 46.7866 7.42577 44.3701 5.01417 41.9574C4.16012 41.1025 4.15979 40.3304 5.0105 39.4771C6.24964 38.2354 7.49812 37.0026 8.72326 35.7466C8.93848 35.5264 9.10753 35.2297 9.21239 34.9376C10.4972 31.3485 12.7866 28.8042 16.6309 27.9935C20.0264 27.2773 23.1007 28.0362 25.78 30.2911C25.9571 30.44 26.2345 30.5357 26.4674 30.541C27.6202 30.5662 28.7881 30.4425 29.9229 30.5883C30.832 30.7049 31.4501 30.3841 32.1126 29.882C33.2508 29.0191 34.4314 28.2129 35.5948 27.3835C38.2392 25.4979 41.3004 26.3813 42.5364 29.3862C42.5536 29.4277 42.5804 29.4652 42.6253 29.5447C42.913 29.3424 43.1881 29.1475 43.465 28.9543C45.562 27.4912 48.261 27.906 49.6824 29.9098C51.1089 31.9208 50.6296 34.6053 48.5511 36.0982C45.3068 38.4278 42.0498 40.7397 38.7981 43.0586C35.8751 45.1426 32.6101 46.1424 29.0282 46.1392C26.2832 46.1367 23.5375 46.1526 20.7923 46.1341C18.9353 46.1216 17.3713 46.7662 16.0806 48.0947C15.7634 48.4208 15.4523 48.7551 15.1127 49.0558C14.7534 49.3732 14.363 49.6551 13.9863 49.9524C13.7584 49.9524 13.5311 49.9524 13.3034 49.9524ZM7.95841 40.6392C9.88572 42.5672 11.7652 44.4483 13.663 46.3468C13.7264 46.2903 13.8264 46.2116 13.9141 46.1211C15.8619 44.1092 18.2301 43.1615 21.0344 43.2057C23.7292 43.2478 26.4255 43.2187 29.121 43.2137C32.0293 43.208 34.6854 42.3938 37.0622 40.7037C38.7951 39.4714 40.5252 38.2354 42.2558 37.0006C43.8151 35.8885 45.378 34.7814 46.9298 33.6594C47.5563 33.2068 47.7367 32.4568 47.4176 31.802C47.1196 31.1895 46.4152 30.8596 45.7377 31.054C45.4955 31.1231 45.2654 31.2665 45.0569 31.4147C42.5147 33.2173 39.9756 35.0236 37.4415 36.8369C35.1382 38.4846 32.5719 39.3119 29.7439 39.322C27.5353 39.3302 25.3269 39.327 23.1182 39.323C22.1221 39.3212 21.4731 38.7362 21.4735 37.8568C21.4736 36.9771 22.1205 36.4016 23.1175 36.4008C25.2934 36.399 27.4695 36.4041 29.6455 36.3981C30.5999 36.3953 31.2444 35.7991 31.2489 34.9381C31.2539 34.0734 30.6121 33.4794 29.6588 33.4769C28.392 33.4731 27.125 33.4567 25.8591 33.4837C25.1821 33.4977 24.6586 33.2825 24.1628 32.8082C22.1226 30.8582 19.6872 30.2424 16.969 30.9131C14.1723 31.6039 12.7078 33.6256 11.8641 36.2341C11.7255 36.6617 11.4796 37.0958 11.171 37.4204C10.1214 38.5258 9.02067 39.5831 7.95841 40.6392ZM34.3315 35.3277C34.6759 35.1208 35.103 34.8949 35.4961 34.6208C36.7076 33.7756 37.9096 32.9174 39.1076 32.0539C39.8832 31.4942 40.0591 30.6288 39.559 29.9335C39.0637 29.2442 38.1803 29.1358 37.4068 29.6833C36.1882 30.5457 34.9752 31.4165 33.7614 32.2858C33.6602 32.3588 33.5707 32.4478 33.4755 32.5292C33.5277 32.526 33.58 32.523 33.6325 32.5195C33.8601 33.4342 34.088 34.3484 34.3315 35.3277Z" fill="#100644"/>
<path d="M28.2143 0.0478352C28.6848 0.164198 29.1691 0.242217 29.6232 0.403258C31.9796 1.23913 33.5076 2.86554 34.1688 5.28148C34.2637 5.6289 34.4062 5.84429 34.742 6.03467C37.3083 7.48837 38.6218 9.71342 38.4235 12.6593C38.2338 15.4752 36.7134 17.4515 34.1495 18.635C33.9089 18.7462 33.6652 18.9534 33.5322 19.1803C32.4834 20.9736 30.948 22.0995 28.8965 22.6108C28.8965 23.7269 28.8978 24.8447 28.8953 25.9623C28.8947 26.1565 28.9025 26.3559 28.863 26.5438C28.7113 27.2623 28.0384 27.7718 27.3394 27.7166C26.5827 27.6566 25.9888 27.0424 25.9778 26.2579C25.9613 25.0573 25.9734 23.8563 25.9734 22.6267C25.6872 22.536 25.4113 22.4584 25.1417 22.3619C23.4675 21.7623 22.2046 20.6788 21.3156 19.1396C21.1989 18.9381 20.9827 18.752 20.7689 18.6545C18.1658 17.4669 16.6162 15.4759 16.4449 12.6135C16.2668 9.64591 17.6115 7.43419 20.203 5.97465C20.3764 5.87713 20.5689 5.69442 20.6187 5.51437C21.4481 2.49061 23.3726 0.669491 26.4744 0.117186C26.5366 0.106183 26.5947 0.0713411 26.6546 0.0476685C27.1749 0.0478352 27.6945 0.0478352 28.2143 0.0478352ZM25.9731 11.5469C25.9731 10.4363 25.9656 9.42085 25.9756 8.40576C25.9843 7.51004 26.6224 6.85971 27.4573 6.87238C28.2738 6.88488 28.8863 7.52738 28.8948 8.40059C28.904 9.30999 28.8958 10.2191 28.8987 11.1284C28.899 11.2426 28.923 11.357 28.9418 11.5225C29.0539 11.4184 29.1137 11.3645 29.1716 11.3085C29.9156 10.5881 30.79 10.5295 31.4075 11.1588C32.0239 11.7871 31.9521 12.6558 31.2187 13.3923C30.5314 14.0829 29.8374 14.7665 29.1547 15.4612C29.0474 15.5702 28.9115 15.7198 28.9098 15.8523C28.8912 17.0633 28.8987 18.2747 28.8987 19.499C29.8621 19.2105 30.738 18.4103 31.1366 17.3667C31.4116 16.6467 31.8709 16.2489 32.6171 16.0492C34.2712 15.6064 35.4621 14.0814 35.5277 12.4264C35.6007 10.5933 34.5871 8.97057 32.8918 8.41343C31.9137 8.09185 31.4948 7.52054 31.423 6.51012C31.2838 4.5448 29.5126 2.99424 27.49 2.97357C25.4363 2.9529 23.6117 4.47428 23.4565 6.45144C23.3743 7.49703 22.9648 8.09735 21.9449 8.42944C20.4042 8.93123 19.3776 10.4399 19.3406 12.0263C19.3006 13.7328 20.2248 15.3413 21.793 15.8668C22.8496 16.2209 23.5406 16.7333 23.9602 17.7873C24.2992 18.6383 25.0552 19.1826 25.9733 19.5406C25.9733 18.3448 25.9883 17.2245 25.9608 16.1054C25.9546 15.8781 25.8401 15.6046 25.6832 15.4389C24.9702 14.684 24.2155 13.968 23.4916 13.2228C22.9017 12.6148 22.8982 11.7454 23.4578 11.1658C24.0239 10.5793 24.923 10.5788 25.5553 11.1643C25.6685 11.2691 25.7834 11.3732 25.9731 11.5469Z" fill="#100644"/>
</g>
<defs>
<clipPath id="clip0_369_533">
<rect width="50" height="50" fill="white" transform="translate(0.5)"/>
</clipPath>
</defs>
</svg>
