<svg width="50" height="50" viewBox="0 0 50 50" fill="none" xmlns="http://www.w3.org/2000/svg">
<path d="M21.0915 4.57825C23.6974 4.57825 26.3033 4.57825 28.9092 4.57825C28.9546 4.603 28.9971 4.63894 29.0456 4.65111C30.4446 5.00114 31.2478 5.91261 31.5227 7.30472C31.6511 7.95486 31.7473 8.61155 31.8507 9.26643C32.1103 10.9114 33.5596 11.7859 35.1216 11.229C35.7831 10.9931 36.4349 10.7295 37.0967 10.4944C38.6424 9.94517 40.1933 10.4874 41.0203 11.8956C42.1494 13.8181 43.2644 15.7492 44.363 17.6894C45.1679 19.1112 44.8524 20.7325 43.6008 21.7835C43.0513 22.2449 42.4845 22.6862 41.9445 23.1581C40.7613 24.1925 40.7619 25.8062 41.9449 26.8426C42.4644 27.2976 43.0085 27.7248 43.5392 28.1671C44.8866 29.2901 45.1805 30.8877 44.3056 32.4157C43.2306 34.293 42.1489 36.1666 41.0595 38.0356C40.1905 39.5264 38.6435 40.0731 37.021 39.4777C36.3491 39.2311 35.6869 38.9564 35.0085 38.7296C33.571 38.2489 32.1233 39.1228 31.8635 40.6144C31.7453 41.2937 31.6514 41.9773 31.5294 42.6557C31.2895 43.9879 30.5373 44.8847 29.2395 45.3069C29.1287 45.3429 29.0194 45.3835 28.9093 45.4219C26.3034 45.4219 23.6974 45.4219 21.0916 45.4219C21.0464 45.3969 21.004 45.3609 20.9556 45.3488C19.5758 45.0022 18.7666 44.1096 18.4854 42.7343C18.35 42.0721 18.2545 41.4016 18.1501 40.7334C17.8931 39.0909 16.4396 38.2134 14.8801 38.7703C14.2061 39.011 13.5419 39.2793 12.8661 39.5143C11.3334 40.0469 9.79936 39.4997 8.98061 38.1039C7.85234 36.181 6.73691 34.2504 5.63781 32.3107C4.8318 30.8881 5.14728 29.2657 6.39905 28.2172C6.95926 27.7478 7.5372 27.299 8.0854 26.8163C9.2264 25.8114 9.22583 24.1856 8.08581 23.1836C7.55713 22.7189 7.00239 22.2838 6.46154 21.8329C5.1137 20.7091 4.82028 19.1122 5.69523 17.5846C6.7704 15.7076 7.85128 13.8336 8.94099 11.9651C9.8121 10.4715 11.3561 9.92663 12.9784 10.5211C13.6877 10.7809 14.3872 11.0709 15.1069 11.2973C16.3814 11.6981 17.731 10.9476 18.0609 9.65306C18.2109 9.06393 18.305 8.4574 18.3812 7.85325C18.5268 6.69648 18.9126 5.67931 19.9686 5.05636C20.316 4.85149 20.7158 4.73509 21.0915 4.57825ZM38.2609 36.4797C39.3687 34.5604 40.4756 32.6427 41.5902 30.712C41.0706 30.2841 40.5708 29.8678 40.066 29.4578C37.1061 27.0531 37.1101 22.9429 40.0745 20.536C40.5781 20.1271 41.0757 19.7109 41.5915 19.2856C40.4671 17.3405 39.3544 15.4155 38.2441 13.4945C37.4574 13.7829 36.73 14.0707 35.9889 14.3174C32.7681 15.3899 29.3925 13.413 28.7453 10.0791C28.5972 9.31602 28.4748 8.54791 28.3423 7.79182C26.0894 7.79182 23.8755 7.79182 21.657 7.79182C21.5068 8.65019 21.4046 9.49679 21.2064 10.3202C20.4151 13.6093 17.0012 15.4156 13.8146 14.2538C13.1333 14.0055 12.4548 13.7498 11.7571 13.4909C10.6323 15.4393 9.52522 17.357 8.41108 19.2872C8.93078 19.7152 9.43119 20.1307 9.9352 20.5419C12.8933 22.9547 12.8887 27.0496 9.92532 29.4659C9.42294 29.8756 8.9249 30.2905 8.41108 30.7144C9.53592 32.6611 10.6483 34.5865 11.7607 36.512C12.4976 36.2359 13.1776 35.9726 13.8633 35.7256C17.1187 34.5526 20.592 36.5242 21.2556 39.9243C21.4045 40.6868 21.5262 41.4544 21.6581 42.2065C23.9136 42.2065 26.1266 42.2065 28.3467 42.2065C28.4854 41.3985 28.6078 40.612 28.7568 39.8307C29.3233 36.8608 32.4141 34.8155 35.3449 35.5179C36.3186 35.7514 37.2544 36.1427 38.2609 36.4797Z" fill="#100644"/>
<path fill-rule="evenodd" clip-rule="evenodd" d="M32.8855 24.991C32.8904 29.3203 29.3287 32.8856 24.999 32.8856C20.6712 32.8856 17.1095 29.3178 17.1151 24.9883C17.1208 20.6744 20.6676 17.1242 24.9816 17.1144C29.313 17.1045 32.8808 20.6599 32.8855 24.991ZM25.0543 20.33C22.5128 20.2736 20.3925 22.3413 20.3316 24.9354C20.2721 27.4804 22.3206 29.5908 24.926 29.6684C27.4749 29.744 29.6247 27.6483 29.6697 25.0439C29.7139 22.4958 27.6497 20.3875 25.0543 20.33Z" fill="#100644"/>
</svg>
